<svg xmlns="http://www.w3.org/2000/svg" aria-hidden="true" style="position:absolute;width:0;height:0;overflow:hidden">
  <defs>
    <symbol id="icon-arrow-left" viewBox="0 0 32 32">
      <path d="M20.834 8.037 9.64 14.5c-1.43.825-1.43 2.175 0 3l11.195 6.463c1.43.826 2.598.15 2.598-1.5V9.537c0-1.65-1.169-2.326-2.599-1.5z"/>
    </symbol>
    <symbol id="icon-arrow-right" viewBox="0 0 32 32">
      <path d="M11.166 23.963 22.36 17.5c1.43-.825 1.43-2.175 0-3L11.165 8.037c-1.43-.826-2.598-.15-2.598 1.5v12.926c0 1.65 1.169 2.326 2.599 1.5z"/>
    </symbol>
    <symbol id="icon-close" viewBox="0 0 32 32">
      <path d="m8.533 25.333-1.867-1.867 7.467-7.467-7.467-7.467 1.867-1.867L16 14.132l7.467-7.467 1.867 1.867-7.467 7.467 7.467 7.467-1.867 1.867L16 17.866l-7.467 7.467z"/>
    </symbol>
    <symbol id="icon-menu" viewBox="0 0 32 32">
      <path d="M4 24v-2h24v2H4zm0-7v-2h24v2H4zm0-7V8h24v2H4z"/>
    </symbol>
    <symbol id="icon-puzzle" viewBox="0 0 32 32">
      <path fill="none" stroke="#b05f1b" stroke-linecap="round" stroke-linejoin="round" stroke-width="1.5" d="M5.333 18.667v5.867a.8.8 0 0 0 .8.8h7.2m12-6.667v5.867a.8.8 0 0 1-.8.8h-5.867m.001-18.667h5.867a.8.8 0 0 1 .8.8v5.867m-20.001-.001V7.466a.8.8 0 0 1 .8-.8h7.2m5.334 18.667v1.333a2.668 2.668 0 0 1-5.334 0v-1.333m-8-12h1.333a2.668 2.668 0 0 1 0 5.334H5.333m20-5.334h1.333a2.668 2.668 0 0 1 0 5.334h-1.333m-6.666-12V5.334a2.668 2.668 0 0 0-5.334 0v1.333" style="stroke:var(--color1, #b05f1b)"/>
    </symbol>
    <symbol id="icon-arrow" viewBox="0 0 32 32">
      <path fill="#b05f1b" d="M8.037 11.166 14.5 22.36c.825 1.43 2.175 1.43 3 0l6.463-11.195c.826-1.43.15-2.598-1.5-2.598H9.537c-1.65 0-2.326 1.169-1.5 2.599z" style="fill:var(--color1, #b05f1b)"/>
    </symbol>
  </defs>
</svg>
