<svg xmlns="http://www.w3.org/2000/svg" aria-hidden="true" style="position:absolute;width:0;height:0;overflow:hidden">
  <defs>
    <symbol id="icon-arrow-down" viewBox="0 0 35 32">
      <path fill="#b05f1b" d="m.74 5.458 13.572 23.507c1.732 3.003 4.568 3.003 6.3 0L34.184 5.456C35.919 2.453 34.499 0 31.034 0H3.889C.424 0-.996 2.455.739 5.458z" style="fill:var(--color1, #b05f1b)"/>
    </symbol>
    <symbol id="icon-arrow-left" viewBox="0 0 32 32">
      <path d="M20.834 8.037 9.64 14.5c-1.43.825-1.43 2.175 0 3l11.195 6.463c1.43.826 2.598.15 2.598-1.5V9.537c0-1.65-1.169-2.326-2.599-1.5z"/>
    </symbol>
    <symbol id="icon-arrow-right" viewBox="0 0 32 32">
      <path d="M11.166 23.963 22.36 17.5c1.43-.825 1.43-2.175 0-3L11.165 8.037c-1.43-.826-2.598-.15-2.598 1.5v12.926c0 1.65 1.169 2.326 2.599 1.5z"/>
    </symbol>
    <symbol id="icon-close" viewBox="0 0 32 32">
      <path d="m8.533 25.333-1.867-1.867 7.467-7.467-7.467-7.467 1.867-1.867L16 14.132l7.467-7.467 1.867 1.867-7.467 7.467 7.467 7.467-1.867 1.867L16 17.866l-7.467 7.467z"/>
    </symbol>
    <symbol id="icon-menu" viewBox="0 0 32 32">
      <path d="M4 24v-2h24v2H4zm0-7v-2h24v2H4zm0-7V8h24v2H4z"/>
    </symbol>
    <symbol id="icon-play" viewBox="0 0 111 32">
      <path fill="#2b073c" stroke="#f5eded" stroke-width=".686" d="M4.114 31.657h102.857c2.083 0 3.771-1.656 3.771-3.657V4c0-2.002-1.689-3.657-3.771-3.657H4.114C2.031.343.343 1.998.343 4v24c0 2.002 1.689 3.657 3.771 3.657z" style="fill:var(--color2, #2b073c);stroke:var(--color3, #f5eded)"/>
      <path fill="#a6a6a6" d="M106.971 0H4.114C1.851 0 0 1.8 0 4v24c0 2.2 1.851 4 4.114 4h102.857c2.263 0 4.114-1.8 4.114-4V4c0-2.2-1.851-4-4.114-4zm0 .64c1.906 0 3.456 1.507 3.456 3.36v24c0 1.853-1.55 3.36-3.456 3.36H4.114C2.208 31.36.658 29.853.658 28V4c0-1.853 1.55-3.36 3.456-3.36h102.857z" style="fill:var(--color4, #a6a6a6)"/>
      <path fill="#f5eded" d="M106.971 0v.686H4.114V-.685h102.857v.686zM4.114 0v.686C2.212.686.685 2.197.685 4H-.686c0-2.597 2.177-4.686 4.8-4.686V0zM0 4h.686v24H-.685V4h.686zm0 24h.686c0 1.803 1.526 3.314 3.429 3.314v1.371c-2.623 0-4.8-2.089-4.8-4.686h.686zm4.114 4v-.686h102.857v1.371H4.114v-.686zm102.857 0v-.686c1.903 0 3.429-1.511 3.429-3.314h1.371c0 2.597-2.177 4.686-4.8 4.686V32zm4.115-4h-.686V4h1.371v24h-.686zm0-24h-.686c0-1.803-1.526-3.314-3.429-3.314V-.685c2.623 0 4.8 2.089 4.8 4.686h-.686zM106.971.64v-.686c2.266 0 4.142 1.796 4.142 4.046h-1.371c0-1.456-1.225-2.674-2.77-2.674V.64zM110.427 4h.686v24h-1.371V4h.686zm0 24h.686c0 2.25-1.876 4.046-4.142 4.046v-1.371c1.545 0 2.77-1.218 2.77-2.674h.686zm-3.456 3.36v.686H4.114v-1.371h102.857v.686zm-102.857 0v.686C1.848 32.046-.028 30.25-.028 28h1.371c0 1.456 1.225 2.674 2.77 2.674v.686zM.658 28h-.686V4h1.371v24H.657zm0-24h-.686c0-2.25 1.876-4.046 4.142-4.046v1.371c-1.545 0-2.77 1.218-2.77 2.674H.658zM4.114.64v-.686h102.857v1.371H4.114V.639zM39.018 8.412c0 .654-.206 1.174-.62 1.562-.47.462-1.082.693-1.835.693-.722 0-1.334-.234-1.838-.703-.505-.468-.757-1.049-.757-1.741s.251-1.274.757-1.742c.504-.468 1.116-.703 1.838-.703.357 0 .7.066 1.025.197s.586.305.782.522l-.44.412c-.33-.37-.786-.555-1.367-.555-.526 0-.981.173-1.364.519s-.575.796-.575 1.35c0 .553.191 1.003.575 1.349s.838.519 1.364.519c.558 0 1.022-.174 1.395-.522.241-.227.38-.542.418-.948h-1.813v-.562h2.42c.023.122.035.24.035.353z" style="fill:var(--color3, #f5eded)"/>
      <path fill="#f5eded" d="m38.398 9.974-.48-.489.005-.005.006-.005.469.5zm-3.673-.01.466-.503.001.001-.467.502zm0-3.483.467.502-.466-.503zm2.863-.507-.256.636h-.001l.257-.636zm.781.523.51-.458.449.5-.49.459-.469-.5zm-.439.412.469.5-.512.48-.468-.523.511-.457zm-2.731-.036-.46-.509h.001l.459.509zm0 2.699.459-.509.001.001-.46.509zm2.759-.003.47.5-.001.001-.468-.501zm.418-.948v-.686h.752l-.069.749-.683-.063zm-1.813 0v.686h-.686v-.686h.686zm0-.562h-.686v-.686h.686v.686zm2.42 0v-.686h.568l.106.558-.674.128zm.035.353h.686c0 .811-.263 1.524-.837 2.062l-.939-1c.254-.239.404-.566.404-1.062h.686zm-.62 1.562.48.489c-.617.606-1.41.889-2.315.889V9.981c.601 0 1.031-.178 1.354-.496l.48.489zm-1.835.693v.686c-.885 0-1.668-.293-2.305-.886l.934-1.004c.37.344.813.519 1.371.519v.686zm-1.838-.703-.466.503a2.961 2.961 0 0 1-.976-2.245h1.371c0 .504.173.902.537 1.238l-.466.503zm-.757-1.741h-.686c0-.882.329-1.645.976-2.245l.933 1.005a1.595 1.595 0 0 0-.537 1.239h-.686zm.757-1.742-.467-.502c.637-.592 1.419-.886 2.305-.886v1.371c-.557 0-1.001.175-1.371.519l-.467-.502zm1.838-.703v-.686c.443 0 .873.082 1.281.246l-.513 1.272a2.038 2.038 0 0 0-.768-.147v-.686zm1.025.196.256-.636c.403.162.757.39 1.035.7l-1.02.917a1.398 1.398 0 0 0-.528-.345l.256-.636zm.781.523.469.5-.44.412-.938-1.001.44-.412.469.5zm-.439.412-.511.457c-.178-.199-.434-.327-.856-.327V5.668c.74 0 1.395.244 1.878.784l-.511.457zm-1.367-.556v.686c-.36 0-.65.112-.905.343l-.919-1.018a2.654 2.654 0 0 1 1.824-.696v.686zm-1.364.52.46.509c-.229.207-.349.466-.349.841h-1.371c0-.732.263-1.372.801-1.859l.46.509zm-.576 1.35h.686c0 .375.121.634.349.84l-.919 1.018c-.539-.486-.802-1.127-.802-1.858h.686zm.576 1.349.46-.509c.255.23.544.342.904.342v1.371a2.649 2.649 0 0 1-1.824-.697l.46-.509zm1.364.519v-.686c.401 0 .693-.119.927-.338l.937 1.002c-.512.479-1.149.707-1.863.707v-.686zm1.395-.522-.47-.5c.093-.088.179-.232.205-.511l1.366.126c-.049.532-.241 1.018-.631 1.384l-.47-.5zm.418-.948v.686h-1.813V7.936h1.813v.686zm-1.813 0h-.686v-.562h1.371v.562h-.686zm0-.562v-.686h2.42v1.371h-2.42v-.686zm2.42 0 .674-.128c.031.16.047.321.047.481h-1.371c0-.066-.007-.141-.023-.225l.674-.128zM42.69 5.934h-2.148v1.55h1.937v.587h-1.937v1.55h2.148v.601h-2.754V5.333h2.754v.601z" style="fill:var(--color3, #f5eded)"/>
      <path fill="#f5eded" d="M42.69 5.934h.686v.686h-.686v-.686zm-2.148 0h-.686v-.686h.686v.686zm0 1.55v.686h-.686v-.686h.686zm1.937 0v-.686h.686v.686h-.686zm0 .587h.686v.686h-.686v-.686zm-1.937 0h-.686v-.686h.686v.686zm0 1.55v.686h-.686v-.686h.686zm2.148 0v-.686h.686v.686h-.686zm0 .601h.686v.686h-.686v-.686zm-2.754 0v.686h-.686v-.686h.686zm0-4.889h-.686v-.686h.686v.686zm2.754 0v-.686h.686v.686h-.686zm0 .601v.686h-2.148V5.249h2.148v.686zm-2.148 0h.686v1.55h-1.371v-1.55h.686zm0 1.55v-.686h1.937v1.371h-1.937v-.686zm1.937 0h.686v.587h-1.371v-.587h.686zm0 .587v.686h-1.937V7.386h1.937v.686zm-1.937 0h.686v1.55h-1.371v-1.55h.686zm0 1.55v-.686h2.148v1.371h-2.148V9.62zm2.148 0h.686v.601h-1.371v-.601h.686zm0 .601v.686h-2.754V9.537h2.754v.686zm-2.754 0h-.686V5.333h1.371v4.889h-.686zm0-4.889v-.686h2.754v1.371h-2.754v-.686zm2.754 0h.686v.601h-1.371v-.601h.686zM45.515 10.222h-.601V5.934h-1.306v-.601h3.213v.601h-1.306v4.288z" style="fill:var(--color3, #f5eded)"/>
      <path fill="#f5eded" d="M45.515 10.222h.686v.686h-.686v-.686zm-.601 0v.686h-.686v-.686h.686zm0-4.288v-.686h.686v.686h-.686zm-1.306 0v.686h-.686v-.686h.686zm0-.601h-.686v-.686h.686v.686zm3.214 0v-.686h.686v.686h-.686zm0 .601h.686v.686h-.686v-.686zm-1.307 0h-.686v-.686h.686v.686zm0 4.288v.686h-.601V9.537h.601v.686zm-.601 0h-.686V5.934h1.371v4.288h-.686zm0-4.288v.686h-1.306V5.249h1.306v.686zm-1.306 0h-.686v-.601h1.371v.601h-.686zm0-.601v-.686h3.213v1.371h-3.213v-.686zm3.214 0h.686v.601h-1.371v-.601h.686zm0 .601v.686h-1.306V5.249h1.306v.686zm-1.307 0h.686v4.288H44.83V5.934h.686zM49.116 5.333h.459v4.889h-.459V5.333zM52.859 10.222h-.601V5.934h-1.306v-.601h3.213v.601h-1.306v4.288z" style="fill:var(--color3, #f5eded)"/>
      <path fill="#f5eded" d="M52.859 10.222h.686v.686h-.686v-.686zm-.6 0v.686h-.686v-.686h.686zm0-4.288v-.686h.686v.686h-.686zm-1.306 0v.686h-.686v-.686h.686zm0-.601h-.686v-.686h.686v.686zm3.213 0v-.686h.686v.686h-.686zm0 .601h.686v.686h-.686v-.686zm-1.307 0h-.686v-.686h.686v.686zm0 4.288v.686h-.601V9.537h.601v.686zm-.6 0h-.686V5.934h1.371v4.288h-.686zm0-4.288v.686h-1.306V5.249h1.306v.686zm-1.306 0h-.686v-.601h1.371v.601h-.686zm0-.601v-.686h3.213v1.371h-3.213v-.686zm3.213 0h.686v.601h-1.371v-.601h.686zm0 .601v.686H52.86V5.249h1.306v.686zm-1.307 0h.686v4.288h-1.371V5.934h.686zM57.192 9.566c.363.351.808.526 1.334.526s.971-.175 1.334-.526c.364-.351.546-.799.546-1.343s-.182-.993-.546-1.343c-.363-.351-.808-.526-1.334-.526s-.971.176-1.334.526c-.363.35-.545.799-.545 1.343s.182.992.545 1.343zm3.135.391c-.483.473-1.083.71-1.801.71s-1.318-.236-1.801-.71c-.483-.473-.724-1.05-.724-1.734s.241-1.263.724-1.735c.482-.473 1.083-.71 1.801-.71.714 0 1.312.238 1.798.713s.727 1.052.727 1.732c0 .684-.242 1.262-.724 1.734z" style="fill:var(--color3, #f5eded)"/>
      <path fill="#f5eded" d="m57.192 9.566-.476.493v-.001l.477-.493zm2.669-2.686-.475.494v-.001l.476-.493zm-2.669 0zm3.135 3.077zm-3.602 0 .48-.49.001.001-.48.489zm0-3.469.48.49-.48-.49zm3.599.003.48-.49-.48.49zm-3.132 3.075.476-.493c.23.222.501.333.858.333v1.371a2.536 2.536 0 0 1-1.811-.718l.476-.493zm1.334.525v-.686c.358 0 .629-.112.858-.333l.952.987a2.532 2.532 0 0 1-1.811.718v-.686zm1.335-.525-.476-.493c.219-.212.336-.476.336-.85h1.371c0 .715-.248 1.346-.756 1.836l-.476-.493zm.546-1.343h-.686c0-.374-.118-.639-.336-.849l.951-.988c.509.49.756 1.122.756 1.837h-.686zm-.546-1.343-.476.493a1.165 1.165 0 0 0-.858-.334V5.668c.696 0 1.314.239 1.811.719l-.476.493zm-1.335-.527v.686c-.357 0-.629.112-.858.334l-.952-.987a2.532 2.532 0 0 1 1.811-.719v.686zm-1.334.527.476.493c-.218.21-.336.476-.336.85h-1.371c0-.715.247-1.346.755-1.836l.476.493zm-.546 1.343h.686c0 .374.117.638.336.85l-.954.986c-.507-.49-.754-1.121-.754-1.836h.686zm3.681 1.734.48.49c-.62.607-1.396.906-2.281.906V9.982c.551 0 .975-.174 1.321-.514l.48.49zm-1.801.71v.686c-.885 0-1.662-.298-2.281-.906l.96-.979c.345.339.769.513 1.32.513v.686zm-1.801-.71-.48.49a3.018 3.018 0 0 1-.93-2.225h1.371c0 .502.169.903.517 1.244l-.48.49zm-.723-1.734h-.686c0-.865.313-1.622.93-2.225l.959.98a1.648 1.648 0 0 0-.517 1.245h-.686zm.723-1.735-.48-.49c.618-.606 1.395-.906 2.28-.906v1.371c-.551 0-.975.175-1.321.514l-.48-.49zm1.801-.71v-.686c.884 0 1.657.302 2.278.908l-.959.98c-.351-.343-.774-.517-1.318-.517v-.686zm1.798.713.48-.49c.617.604.933 1.358.933 2.222h-1.371a1.65 1.65 0 0 0-.522-1.242l.48-.49zm.727 1.732h.686c0 .866-.314 1.621-.93 2.224l-.96-.98c.349-.342.518-.743.518-1.245h.686z" style="fill:var(--color3, #f5eded)"/>
      <path fill="#f5eded" stroke="#f5eded" stroke-width=".686" d="m62.653 5.892-.131-.216h-.209v.216h.341zm2.646 3.987v-.4h-.347l.243.4h.103z" style="fill:var(--color3, #f5eded);stroke:var(--color3, #f5eded)"/>
      <path fill="#f5eded" stroke="#f5eded" stroke-width="1.371" d="M88.201 23.813h1.536V13.699h-1.536v10.114zm13.832-6.471-1.76 4.385h-.053l-1.827-4.385h-1.654l2.74 6.129-1.562 3.409h1.601l4.223-9.538h-1.708zm-8.709 5.323c-.504 0-1.205-.247-1.205-.859 0-.78.873-1.079 1.628-1.079.675 0 .993.143 1.403.338-.12.937-.94 1.6-1.826 1.6zm.186-5.543c-1.112 0-2.264.481-2.74 1.549l1.363.559c.291-.559.833-.742 1.403-.742.794 0 1.602.468 1.615 1.302v.104a3.447 3.447 0 0 0-1.602-.39c-1.469 0-2.966.794-2.966 2.277 0 1.354 1.205 2.226 2.555 2.226 1.033 0 1.602-.456 1.959-.989h.053v.781h1.482v-3.878c0-1.795-1.363-2.797-3.123-2.797zm-9.492 1.452h-2.184v-3.467h2.184c1.148 0 1.8.934 1.8 1.733 0 .784-.652 1.734-1.8 1.734zm-.04-4.875h-3.68v10.114h1.535v-3.832h2.144c1.702 0 3.376-1.212 3.376-3.142s-1.674-3.141-3.376-3.141zm-20.065 8.967c-1.061 0-1.949-.873-1.949-2.072 0-1.212.888-2.099 1.949-2.099 1.047 0 1.869.887 1.869 2.099 0 1.199-.822 2.072-1.869 2.072zm1.763-4.757h-.053c-.345-.404-1.008-.769-1.843-.769-1.751 0-3.355 1.511-3.355 3.454 0 1.929 1.604 3.428 3.355 3.428.835 0 1.498-.365 1.843-.782h.053v.496c0 1.316-.716 2.02-1.87 2.02-.941 0-1.525-.665-1.764-1.226l-1.339.548c.384.913 1.406 2.033 3.103 2.033 1.803 0 3.328-1.043 3.328-3.584v-6.179h-1.458v.561zm2.52 5.904h1.538V13.698h-1.538v10.115zM72 20.477a1.902 1.902 0 0 1 1.829-2.007c.611 0 1.127.299 1.3.73L72 20.478zm4.774-1.148c-.291-.769-1.18-2.189-2.997-2.189-1.803 0-3.302 1.394-3.302 3.441 0 1.929 1.485 3.441 3.473 3.441a3.494 3.494 0 0 0 2.918-1.525l-1.193-.782c-.398.574-.942.951-1.724.951s-1.339-.352-1.697-1.042l4.68-1.904-.159-.391zm-37.29-1.133v1.46h3.553c-.106.821-.384 1.421-.808 1.837-.518.509-1.327 1.07-2.745 1.07-2.188 0-3.899-1.734-3.899-3.884s1.71-3.884 3.899-3.884c1.18 0 2.042.456 2.678 1.043l1.048-1.03c-.889-.834-2.068-1.473-3.726-1.473-2.997 0-5.516 2.399-5.516 5.345s2.519 5.344 5.516 5.344c1.617 0 2.837-.522 3.792-1.499.982-.964 1.286-2.32 1.286-3.415 0-.339-.026-.651-.08-.912h-4.998zm9.118 4.47c-1.061 0-1.976-.86-1.976-2.085 0-1.239.915-2.086 1.976-2.086s1.975.847 1.975 2.086c0 1.225-.915 2.085-1.975 2.085zm0-5.526c-1.936 0-3.514 1.447-3.514 3.441 0 1.981 1.578 3.441 3.514 3.441s3.514-1.46 3.514-3.441c0-1.994-1.578-3.441-3.514-3.441zm7.665 5.526c-1.061 0-1.976-.86-1.976-2.085 0-1.239.915-2.086 1.976-2.086s1.975.847 1.975 2.086c0 1.225-.914 2.085-1.975 2.085zm0-5.526c-1.936 0-3.514 1.447-3.514 3.441 0 1.981 1.578 3.441 3.514 3.441s3.514-1.46 3.514-3.441c0-1.994-1.578-3.441-3.514-3.441z" style="fill:var(--color3, #f5eded);stroke:var(--color3, #f5eded)"/>
      <path fill="#ea4335" stroke="#f5eded" stroke-width=".686" d="M10.539 25.879c.375 0 .725-.098 1.025-.269l.03-.017 9.429-5.274-4.044-4.268-8.325 8.565c.282.733 1.016 1.263 1.885 1.263z" style="fill:var(--color5, #ea4335);stroke:var(--color3, #f5eded)"/>
      <path fill="#f0b502" stroke="#f5eded" stroke-width=".686" d="m25.689 17.756.008-.004a1.977 1.977 0 0 0 1.043-1.74 1.97 1.97 0 0 0-1.03-1.733l-.017-.009-.011-.008-3.95-2.285-4.248 3.772 4.279 4.268 3.927-2.261z" style="fill:var(--color6, #f0b502);stroke:var(--color3, #f5eded)"/>
      <path fill="#4285f4" stroke="#f5eded" stroke-width=".686" d="M16.946 15.552 8.605 7.821v15.888l8.341-8.157z" style="fill:var(--color7, #4285f4);stroke:var(--color3, #f5eded)"/>
      <path fill="#34a853" stroke="#f5eded" stroke-width=".686" d="m21.006 11.695-9.417-5.294a2.07 2.07 0 0 0-1.046-.28c-.867 0-1.6.529-1.886 1.259l8.4 8.143 3.949-3.828zM8.569 7.63l-.001.001v.001l.001-.002z" style="fill:var(--color8, #34a853);stroke:var(--color3, #f5eded)"/>
    </symbol>
    <symbol id="icon-puzzle" viewBox="0 0 32 32">
      <path fill="none" stroke="#b05f1b" stroke-linecap="round" stroke-linejoin="round" stroke-width="1.5" d="M5.333 18.667v5.867a.8.8 0 0 0 .8.8h7.2m12-6.667v5.867a.8.8 0 0 1-.8.8h-5.867m.001-18.667h5.867a.8.8 0 0 1 .8.8v5.867m-20.001-.001V7.466a.8.8 0 0 1 .8-.8h7.2m5.334 18.667v1.333a2.668 2.668 0 0 1-5.334 0v-1.333m-8-12h1.333a2.668 2.668 0 0 1 0 5.334H5.333m20-5.334h1.333a2.668 2.668 0 0 1 0 5.334h-1.333m-6.666-12V5.334a2.668 2.668 0 0 0-5.334 0v1.333" style="stroke:var(--color1, #b05f1b)"/>
    </symbol>
    <symbol id="icon-arrow-down1" viewBox="0 0 32 32">
      <path fill="#b05f1b" d="M8.037 11.166 14.5 22.36c.825 1.43 2.175 1.43 3 0l6.463-11.195c.826-1.43.15-2.598-1.5-2.598H9.537c-1.65 0-2.326 1.169-1.5 2.599z" style="fill:var(--color1, #b05f1b)"/>
    </symbol>
  </defs>
</svg>
